<svg width="190" height="84" viewBox="0 0 190 84" fill="none" xmlns="http://www.w3.org/2000/svg">
<path d="M87.752 73.2734L48.1191 83.1445L58.3613 72.457C57.0749 69.4388 55.7637 66.4206 54.4277 63.4023C53.1413 60.3841 51.8053 57.3659 50.4199 54.3477C46.8574 54.5951 43.2949 54.7435 39.7324 54.793C36.2194 54.793 32.6816 54.9167 29.1191 55.1641C28.4264 56.4505 27.7337 57.737 27.041 59.0234C26.3978 60.2604 25.7298 61.5221 25.0371 62.8086L38.5449 71.6406L0.470703 69.1172L18.7285 61.3984L37.6543 25.2539L17.6895 15.0859L46.1895 16.2734L71.8691 68.5977L87.752 73.2734ZM47.748 47.8906C46.61 45.4167 45.4473 42.9674 44.2598 40.543C43.0723 38.1185 41.9095 35.6693 40.7715 33.1953C39.485 35.5703 38.1986 37.9206 36.9121 40.2461C35.6751 42.5221 34.4134 44.8477 33.127 47.2227L47.748 47.8906ZM129.463 71.2695L98.3652 70.3789L108.904 64.6641V51.082C108.904 48.0143 108.113 45.6393 106.529 43.957C104.946 42.2747 102.62 41.4336 99.5527 41.4336C98.2663 41.4336 96.8066 41.582 95.1738 41.8789C93.5905 42.1263 92.2298 42.5469 91.0918 43.1406C90.9434 45.9609 90.7949 48.7812 90.6465 51.6016C90.5475 54.3724 90.4486 57.168 90.3496 59.9883L99.7754 65.6289L68.6777 66.8906L80.627 60.2852L78.6973 10.4102L60.4395 5.58594L92.9473 0.761719L91.3887 36.3867C92.6257 35.9909 93.8874 35.7188 95.1738 35.5703C96.4603 35.4219 97.7467 35.3477 99.0332 35.3477H99.3301C101.458 35.3477 103.758 35.5703 106.232 36.0156C108.706 36.4115 110.982 37.1289 113.061 38.168C115.188 39.1576 116.945 40.543 118.33 42.3242C119.715 44.056 120.408 46.2578 120.408 48.9297C120.408 49.8698 120.309 51.0326 120.111 52.418C119.963 53.8034 119.765 55.2383 119.518 56.7227C119.27 58.207 118.998 59.6419 118.701 61.0273C118.404 62.3633 118.157 63.4766 117.959 64.3672L129.463 71.2695ZM171.396 66.7422L147.869 67.707L148.389 63.5508C146.805 63.7487 145.222 63.8724 143.639 63.9219C142.055 63.9219 140.472 63.9219 138.889 63.9219C137.454 63.9219 135.87 63.7487 134.139 63.4023C132.407 63.056 130.799 62.5117 129.314 61.7695C127.83 60.9779 126.593 59.9635 125.604 58.7266C124.614 57.4896 124.119 55.9805 124.119 54.1992C124.119 52.2201 124.589 50.5378 125.529 49.1523C126.469 47.7669 127.657 46.6536 129.092 45.8125C130.576 44.9714 132.209 44.3529 133.99 43.957C135.771 43.5612 137.503 43.3633 139.186 43.3633C141.264 43.3633 143.292 43.4622 145.271 43.6602C147.251 43.8581 149.255 44.0312 151.283 44.1797C151.382 43.5365 151.456 42.8932 151.506 42.25C151.555 41.5573 151.58 40.8646 151.58 40.1719C151.58 38.8359 151.456 37.5247 151.209 36.2383C151.011 34.9518 150.615 33.8138 150.021 32.8242C149.477 31.7852 148.686 30.9688 147.646 30.375C146.657 29.7812 145.37 29.4844 143.787 29.4844C142.303 29.4844 140.942 29.7318 139.705 30.2266C138.518 30.6719 137.454 31.4635 136.514 32.6016C137.206 33.1458 137.676 33.7643 137.924 34.457C138.171 35.1003 138.295 35.8424 138.295 36.6836V37.1289C137.553 40.5924 135.376 42.3242 131.764 42.3242C130.131 42.3242 128.795 41.7552 127.756 40.6172C126.717 39.4297 126.197 38.0443 126.197 36.4609C126.197 34.2839 126.816 32.4036 128.053 30.8203C129.29 29.237 130.799 27.9258 132.58 26.8867C134.411 25.8477 136.365 25.0807 138.443 24.5859C140.571 24.0911 142.525 23.8438 144.307 23.8438C149.997 23.8438 154.425 25.1549 157.592 27.7773C160.808 30.3997 162.416 34.6797 162.416 40.6172C162.416 41.2604 162.391 41.9036 162.342 42.5469C162.342 43.1901 162.317 43.8333 162.268 44.4766L160.486 61.5469C162.367 62.388 164.197 63.2539 165.979 64.1445C167.76 65.0352 169.566 65.901 171.396 66.7422ZM150.467 49.1523C149.18 49.0039 147.894 48.8555 146.607 48.707C145.321 48.5091 144.035 48.4102 142.748 48.4102C141.907 48.4102 141.066 48.5091 140.225 48.707C139.433 48.8555 138.691 49.1276 137.998 49.5234C137.355 49.9193 136.835 50.4635 136.439 51.1562C136.044 51.7995 135.846 52.6159 135.846 53.6055C135.846 54.3477 136.019 55.0156 136.365 55.6094C136.712 56.1536 137.157 56.6237 137.701 57.0195C138.295 57.4154 138.913 57.7122 139.557 57.9102C140.249 58.1081 140.917 58.207 141.561 58.207C142.847 58.207 144.133 58.1328 145.42 57.9844C146.756 57.8359 148.042 57.6875 149.279 57.5391L150.467 49.1523ZM189.357 2.98828L180.303 52.3438L171.471 51.3047L173.475 1.80078L189.357 2.98828ZM181.49 61.4727C181.49 62.3633 181.268 63.1549 180.822 63.8477C180.426 64.4909 179.907 65.0352 179.264 65.4805C178.62 65.9258 177.878 66.2474 177.037 66.4453C176.196 66.6432 175.38 66.7422 174.588 66.7422C173.796 66.7422 172.93 66.6185 171.99 66.3711C171.1 66.1732 170.258 65.8268 169.467 65.332C168.725 64.8372 168.106 64.2435 167.611 63.5508C167.117 62.8581 166.869 62.0169 166.869 61.0273C166.869 59.9883 167.117 59.0977 167.611 58.3555C168.106 57.6133 168.725 57.0195 169.467 56.5742C170.258 56.0794 171.124 55.7331 172.064 55.5352C173.005 55.2878 173.92 55.1641 174.811 55.1641C175.652 55.1641 176.468 55.3372 177.26 55.6836C178.101 55.9805 178.818 56.401 179.412 56.9453C180.055 57.4896 180.55 58.1576 180.896 58.9492C181.292 59.7409 181.49 60.582 181.49 61.4727Z" fill="white"/>
</svg>
