<svg width="277" height="136" viewBox="0 0 277 136" fill="none" xmlns="http://www.w3.org/2000/svg">
<path d="M276.46 138.789C276.46 102.13 261.897 66.9728 235.975 41.0513C210.054 15.1297 174.897 0.567141 138.238 0.567139C101.579 0.567136 66.4223 15.1297 40.5008 41.0513C14.5792 66.9728 0.0166376 102.13 0.0166321 138.789L138.238 138.789H276.46Z" fill="#FFCD4B"/>
<path d="M89.9169 56.7547C89.9169 49.3072 96.2059 43.2697 103.964 43.2697C111.722 43.2697 118.011 49.3072 118.011 56.7547" stroke="black" stroke-width="4" stroke-linecap="round"/>
<ellipse cx="150" cy="107.5" rx="11" ry="20.5" fill="black"/>
<path d="M159.589 56.7547C159.589 49.3072 165.878 43.2697 173.636 43.2697C181.394 43.2697 187.683 49.3072 187.683 56.7547" stroke="black" stroke-width="4" stroke-linecap="round"/>
</svg>
